<svg width="257" height="257" viewBox="0 0 257 257" fill="none" xmlns="http://www.w3.org/2000/svg">
<path d="M226.274 0.830002H30.7358C13.9966 0.830002 0.419922 14.3993 0.419922 31.1459V226.684C0.419922 243.423 13.9893 257 30.7358 257H226.274C243.013 257 256.59 243.431 256.59 226.684V31.1459C256.583 14.3993 243.013 0.830002 226.274 0.830002Z" fill="#111111"/>
<path d="M176.689 236.981C165.002 236.981 155.11 234.943 147.005 230.854C138.9 226.78 132.715 220.933 128.442 213.328C124.169 205.723 121.779 196.582 121.286 185.91C121.161 180.762 121.095 175.231 121.095 169.325C121.095 163.427 121.154 157.771 121.286 152.365C121.786 141.811 124.206 132.706 128.538 125.043C132.87 117.379 139.092 111.51 147.196 107.421C155.301 103.339 165.127 101.295 176.689 101.295C185.227 101.295 192.898 102.427 199.679 104.685C206.468 106.95 212.241 110.054 217.021 114.018C221.795 117.975 225.501 122.594 228.142 127.867C230.782 133.148 232.165 138.862 232.29 145.018C232.415 146.151 232.069 147.092 231.253 147.842C230.436 148.592 229.458 148.975 228.333 148.975H210.432C209.049 148.975 207.916 148.629 207.041 147.938C206.159 147.246 205.534 146.084 205.158 144.452C203.143 136.163 199.694 130.507 194.788 127.492C189.89 124.476 183.793 122.969 176.505 122.969C168.084 122.969 161.361 125.322 156.338 130.037C151.315 134.751 148.608 142.51 148.233 153.314C147.858 163.618 147.858 174.172 148.233 184.976C148.608 195.787 151.315 203.539 156.338 208.253C161.361 212.968 168.084 215.321 176.505 215.321C183.793 215.321 189.883 213.784 194.788 210.702C199.687 207.621 203.143 202.002 205.158 193.831C205.534 192.073 206.159 190.882 207.041 190.249C207.916 189.617 209.049 189.3 210.432 189.3H228.333C229.466 189.3 230.436 189.675 231.253 190.433C232.069 191.191 232.415 192.132 232.29 193.257C232.165 199.413 230.782 205.135 228.142 210.408C225.501 215.689 221.795 220.308 217.021 224.264C212.248 228.221 206.468 231.332 199.679 233.597C192.898 235.848 185.227 236.981 176.689 236.981Z" fill="#F7F7F7"/>
</svg>
